<?xml version="1.0" encoding="UTF-8"?>
<svg width="64" height="64" viewBox="0 0 64 64" fill="none" xmlns="http://www.w3.org/2000/svg" role="img" aria-labelledby="title desc">
  <title id="title">Code Complexity Analyzer — Icon</title>
  <desc id="desc">Square emblem with curly braces and a triangular node graph for use as a favicon or tab icon.</desc>
  <style>
    :root { --fg: #0F172A; --accent: #2563EB; }
    @media (prefers-color-scheme: dark) {
      :root { --fg: #E5E7EB; --accent: #60A5FA; }
    }
  </style>
  <!-- Background for tiny sizes (optional): transparent to inherit page -->
  <!-- Braces -->
  <path d="M16 10c-6 0-10 4-10 9 0 4 3 7 6 8-3 1-6 4-6 8 0 5 4 9 10 9" stroke="var(--fg)" stroke-width="4" stroke-linecap="round"/>
  <path d="M48 10c6 0 10 4 10 9 0 4-3 7-6 8 3 1 6 4 6 8 0 5-4 9-10 9" stroke="var(--fg)" stroke-width="4" stroke-linecap="round"/>
  <!-- Triangle graph -->
  <path d="M20 42L32 18L44 42Z" stroke="var(--accent)" stroke-width="4" stroke-linejoin="round"/>
  <circle cx="20" cy="42" r="3" fill="var(--accent)"/>
  <circle cx="32" cy="18" r="3" fill="var(--accent)"/>
  <circle cx="44" cy="42" r="3" fill="var(--accent)"/>
</svg>
